<?xml version="1.0" encoding="UTF-8" standalone="no"?>
<svg
   width="140"
   height="32"
   viewBox="0 0 140 32"
   fill="none"
   version="1.1"
   id="svg8"
   xmlns="http://www.w3.org/2000/svg"
   xmlns:svg="http://www.w3.org/2000/svg">
  <defs
     id="defs12" />
  <!-- Background removed (transparent) -->
  <circle
     cx="18"
     cy="16"
     r="10"
     fill="#F4F5FF"
     id="circle2" />
  <path
     d="M14 16h8"
     stroke="#0F1726"
     stroke-width="2"
     stroke-linecap="round"
     id="path4" />
  <g
     aria-label="DropBinge"
     id="text6"
     style="font-weight:600;font-size:12px;font-family:Inter, Arial, sans-serif;fill:#f4f5ff;stroke:#f4f5ff;stroke-width:0.28;paint-order:stroke fill">
    <path
       d="m 39.818182,21 c 2.659091,0 4.235795,-1.644886 4.235795,-4.372159 0,-2.71875 -1.576704,-4.355114 -4.176136,-4.355114 H 36.860795 V 21 Z m -1.376421,-1.367898 v -5.991477 h 1.346591 c 1.772728,0 2.697443,0.988636 2.697443,2.987216 0,2.007102 -0.924715,3.004261 -2.744318,3.004261 z"
       id="path14" />
    <path
       d="m 45.485798,21 h 1.542613 v -3.848011 c 0,-0.830966 0.626421,-1.419034 1.474432,-1.419034 0.259943,0 0.583807,0.04687 0.715909,0.08949 v -1.419034 c -0.140625,-0.02557 -0.383523,-0.04261 -0.553977,-0.04261 -0.75,0 -1.376421,0.426137 -1.615057,1.18466 h -0.06818 v -1.09091 h -1.495738 z"
       id="path16" />
    <path
       d="m 52.828117,21.127841 c 1.917613,0 3.136363,-1.350852 3.136363,-3.375 0,-2.028409 -1.21875,-3.383523 -3.136363,-3.383523 -1.917614,0 -3.136364,1.355114 -3.136364,3.383523 0,2.024148 1.21875,3.375 3.136364,3.375 z m 0.0085,-1.235796 c -1.061079,0 -1.580966,-0.946022 -1.580966,-2.143465 0,-1.197444 0.519887,-2.15625 1.580966,-2.15625 1.044034,0 1.563921,0.958806 1.563921,2.15625 0,1.197443 -0.519887,2.143465 -1.563921,2.143465 z"
       id="path18" />
    <path
       d="m 57.268451,23.454545 h 1.542614 V 19.96875 h 0.06392 c 0.242898,0.477273 0.75,1.146307 1.875,1.146307 1.542614,0 2.697444,-1.223012 2.697444,-3.379262 0,-2.181818 -1.188921,-3.366477 -2.701705,-3.366477 -1.154829,0 -1.636364,0.694602 -1.870739,1.167614 h -0.08949 v -1.082387 h -1.517046 z m 1.512784,-5.727272 c 0,-1.269887 0.545455,-2.09233 1.538353,-2.09233 1.026988,0 1.555397,0.87358 1.555397,2.09233 0,1.227272 -0.536931,2.122159 -1.555397,2.122159 -0.984375,0 -1.538353,-0.852273 -1.538353,-2.122159 z"
       id="path20" />
    <path
       d="m 64.832376,21 h 3.53267 c 1.99858,0 2.978694,-1.018466 2.978694,-2.377841 0,-1.321023 -0.9375,-2.096591 -1.866478,-2.143466 v -0.08523 c 0.852273,-0.200284 1.525569,-0.796875 1.525569,-1.857955 0,-1.299716 -0.9375,-2.262784 -2.829546,-2.262784 h -3.340909 z m 1.580966,-1.321023 v -2.556818 h 1.742898 c 0.975852,0 1.580966,0.596591 1.580966,1.376421 0,0.694602 -0.477273,1.180397 -1.62358,1.180397 z m 0,-3.694602 v -2.40767 h 1.598011 c 0.928978,0 1.410512,0.490056 1.410512,1.163352 0,0.767045 -0.622159,1.244318 -1.444603,1.244318 z"
       id="path22" />
    <path
       d="m 72.651989,21 h 1.542613 v -6.545455 h -1.542613 z m 0.775568,-7.474432 c 0.490057,0 0.890625,-0.375 0.890625,-0.835227 0,-0.464489 -0.400568,-0.839489 -0.890625,-0.839489 -0.494318,0 -0.894887,0.375 -0.894887,0.839489 0,0.460227 0.400569,0.835227 0.894887,0.835227 z"
       id="path24" />
    <path
       d="m 77.322433,17.164773 c 0,-0.946023 0.571023,-1.491478 1.384943,-1.491478 0.796875,0 1.274148,0.524148 1.274148,1.397728 V 21 h 1.542613 v -4.167614 c 0.0043,-1.568181 -0.890625,-2.463068 -2.241477,-2.463068 -0.980114,0 -1.653409,0.46875 -1.951704,1.197443 h -0.07671 V 14.454545 H 75.779819 V 21 h 1.542614 z"
       id="path26" />
    <path
       d="m 85.943167,23.590909 c 1.768466,0 3.072443,-0.809659 3.072443,-2.484375 v -6.651989 h -1.521306 v 1.082387 h -0.08523 c -0.234375,-0.473012 -0.724431,-1.167614 -1.879261,-1.167614 -1.512784,0 -2.701705,1.184659 -2.701705,3.336648 0,2.134943 1.188921,3.200284 2.697444,3.200284 1.120738,0 1.644886,-0.600852 1.883522,-1.082386 h 0.07671 v 1.240056 c 0,0.963069 -0.639205,1.359375 -1.517046,1.359375 -0.928977,0 -1.338068,-0.43892 -1.525568,-0.822443 L 83.053963,21.9375 c 0.28125,0.916193 1.223011,1.653409 2.889204,1.653409 z m 0.01278,-3.894886 c -1.018466,0 -1.555397,-0.792614 -1.555397,-1.99858 0,-1.18892 0.528409,-2.0625 1.555397,-2.0625 0.992898,0 1.538353,0.822443 1.538353,2.0625 0,1.24858 -0.553978,1.99858 -1.538353,1.99858 z"
       id="path28" />
    <path
       d="m 93.498561,21.127841 c 1.525568,0 2.573863,-0.745739 2.846591,-1.883523 l -1.440341,-0.161932 c -0.208807,0.553978 -0.720171,0.84375 -1.384943,0.84375 -0.997159,0 -1.657671,-0.65625 -1.670455,-1.776988 h 4.559659 v -0.473012 c 0,-2.296875 -1.380682,-3.306818 -2.991477,-3.306818 -1.875,0 -3.098011,1.376421 -3.098011,3.396307 0,2.053977 1.205965,3.362216 3.178977,3.362216 z m -1.644887,-4.018466 c 0.04687,-0.835227 0.664773,-1.538352 1.585228,-1.538352 0.886363,0 1.482954,0.647727 1.491477,1.538352 z"
       id="path30" />
  </g>
</svg>
