<svg width="64" height="32" viewBox="0 0 64 32" fill="none" xmlns="http://www.w3.org/2000/svg">
  <path
    d="M4 8.3C4 6.5 5.5 5 7.3 5h21.4c1.8 0 3.3 1.5 3.3 3.3v15.4c0 1.9-1.5 3.3-3.3 3.3H7.3A3.3 3.3 0 0 1 4 23.7V8.3Z"
    stroke="#F5F6FB"
    stroke-width="2.5"
    stroke-linejoin="round"
  />
  <path
    d="M36 10.6c0-1.4 1.1-2.6 2.6-2.6h12.8c1.4 0 2.6 1.2 2.6 2.6v11c0 1.4-1.2 2.5-2.6 2.5H38.6a2.6 2.6 0 0 1-2.6-2.5v-11Z"
    stroke="#F5F6FB"
    stroke-width="2.5"
    stroke-linejoin="round"
    opacity="0.95"
  />
  <path
    d="M48 13.2c0-1 0.8-1.7 1.8-1.7h8.4c1 0 1.8 0.8 1.8 1.7v6.8c0 1-0.8 1.8-1.8 1.8h-8.4c-1 0-1.8-0.8-1.8-1.8v-6.8Z"
    stroke="#F5F6FB"
    stroke-width="2.5"
    stroke-linejoin="round"
    opacity="0.88"
  />
</svg>
